<?xml version="1.0" standalone="no"?>
<!DOCTYPE svg PUBLIC "-//W3C//DTD SVG 20010904//EN"
 "http://www.w3.org/TR/2001/REC-SVG-20010904/DTD/svg10.dtd">
<svg version="1.0" xmlns="http://www.w3.org/2000/svg"
 width="700.000000pt" height="700.000000pt" viewBox="0 0 700.000000 700.000000"
 preserveAspectRatio="xMidYMid meet">
<metadata>
Created by potrace 1.11, written by Peter Selinger 2001-2013
</metadata>
<g transform="translate(0.000000,700.000000) scale(0.100000,-0.100000)"
fill="#000000" stroke="none">
<path d="M479 6982 c-1 -4 -2 -1572 -2 -3485 -2 -2324 1 -3477 8 -3477 6 0 57
28 115 61 58 34 123 72 145 84 22 12 139 79 260 150 121 70 240 139 265 153
171 96 337 195 345 206 7 9 10 466 10 1335 l0 1322 35 -6 c41 -8 149 -54 168
-72 7 -7 17 -13 22 -13 13 0 90 -85 116 -128 53 -89 52 -67 53 -1171 1 -564 3
-1026 5 -1028 3 -4 17 4 281 157 88 51 176 101 195 112 132 76 454 262 545
316 61 36 119 70 130 76 40 23 269 179 333 228 453 348 731 737 847 1188 9 36
19 76 21 90 3 14 9 49 14 78 34 188 33 510 0 682 -6 30 -13 66 -15 80 -3 24
-19 84 -46 175 -21 72 -86 229 -129 310 -176 332 -446 621 -835 896 -50 35
-100 70 -110 76 -78 49 -244 150 -260 159 -11 6 -228 131 -482 278 -255 146
-469 269 -476 272 -10 4 -13 -108 -12 -615 0 -341 2 -621 5 -624 3 -2 39 -19
80 -37 256 -111 533 -269 705 -404 284 -222 475 -521 510 -799 38 -306 -69
-631 -262 -790 l-21 -18 -1 183 c-2 242 -7 300 -37 444 -44 217 -146 411 -295
564 -205 210 -479 360 -1031 564 -25 9 -48 22 -50 29 -2 7 -4 402 -3 878 l1
866 -101 57 c-55 31 -107 61 -115 66 -12 8 -147 86 -416 241 -204 118 -331
192 -344 200 -84 51 -170 97 -171 91z"/>
<path d="M4450 4692 c0 -4 6 -16 14 -27 45 -64 132 -235 175 -341 114 -283
160 -541 156 -864 -3 -179 -5 -209 -26 -332 -18 -101 -20 -112 -39 -188 -48
-188 -131 -385 -239 -568 -17 -29 -31 -55 -31 -57 0 -3 21 8 48 23 61 35 264
152 305 176 64 37 507 292 682 393 99 57 187 107 195 113 8 5 44 26 80 46 36
21 189 109 340 197 151 87 302 174 335 192 33 18 60 38 60 45 0 6 -11 18 -25
25 -14 8 -71 42 -128 75 -56 33 -104 60 -107 60 -2 0 -37 20 -77 44 -58 35
-669 389 -821 475 -18 10 -82 47 -143 83 -61 36 -117 68 -125 71 -8 4 -27 15
-44 26 -16 10 -46 27 -65 38 -132 75 -452 260 -482 280 -21 13 -38 20 -38 15z"/>
</g>
</svg>
