<svg version="1" xmlns="http://www.w3.org/2000/svg" width="646.667" height="646.667" viewBox="0 0 485.000000 485.000000"><path d="M219.9 69.5C178 76.3 136 99 98.6 135c-10.4 10-26 27-25.3 27.6.1.2 7.3 2.7 15.9 5.7l15.6 5.4 6.5-9.6c27.9-41.2 66-68.4 108-77.2 14.2-3 34.3-3 48.4 0 38.1 8 71.7 30.6 98.5 66.2 3.6 4.7 8 11.1 9.9 14.2 1.8 3.2 4 5.7 4.9 5.7 2.5 0 33-10.4 33-11.3 0-2-35.8-36.2-46.8-44.7-31-24-62.4-39.4-93.7-46-13.1-2.8-41-3.6-53.6-1.5zM21 182.2C6.6 212 0 239.6 0 269.9c0 20 4.2 44 11.2 64.1 3.3 9.6 16.4 37 17.6 37 1.3 0 29.6-11.1 30.5-12 .5-.4-1.9-6.3-5.2-13.1-24.7-51.3-24.7-101.5.1-153.2 3.4-7 5.9-12.9 5.7-13C59 178.9 30 168 29 168c-.6 0-4.2 6.4-8 14.2zM440 173.7c-8 3-14.7 5.7-14.9 5.9-.2.2 2.3 6.1 5.7 13.1 14.4 30.2 19.9 57 18 87.8-1.2 21.5-7.2 43.1-17.9 65.4-3.3 6.8-5.7 12.7-5.2 13.2.8.8 29.2 11.9 30.5 11.9 1.6 0 14.8-28.8 18.6-40.5 13.5-40.7 13.5-81.6 0-122.3-4.6-13.9-17.1-40.2-19-40.2-.7.1-7.8 2.6-15.8 5.7zM90.3 204.7c-5.6 12-10.2 25.5-12.9 38.3-1.4 6.5-1.8 12.8-1.8 26.5 0 20.1 1.7 30.7 7.5 47.2 3.6 10.1 11.2 26.7 12.6 27.6.5.4 6.2-1.4 12.6-3.9l11.6-4.6-3.3-6.6c-19.3-38.5-19.8-77.1-1.5-116 4.8-10.2 4.8-10.3 2.6-11.2-11-4.3-21-8-21.6-8-.5 0-3.1 4.8-5.8 10.7zM377.5 198c-5.5 2.2-10.6 4.2-11.3 4.5-.9.3-.3 2.3 2.2 7.2 16.1 32.1 19.1 66.1 8.7 97.9-2.2 6.9-8.4 21.1-11.8 27.5-.2.4 4.9 2.8 11.4 5.3 13.7 5.4 12.3 5.9 18.3-7 5.4-11.4 9.6-23.9 12.2-35.7 1.8-8.3 2.2-13.5 2.2-27.7.1-19.9-1.3-28.7-7.1-46.2-3.7-11.1-12.1-29.1-13.8-29.5-.5-.1-5.5 1.6-11 3.7zM296.7 202.2c-.3.7-3 7.3-6.1 14.7l-5.6 13.5 3 3.5c9.1 10.8 14.1 22.6 14.8 34.8.5 10-.9 14.9-7.2 23.7-5.2 7.3-10.5 12.3-18.9 17.7-5.2 3.4-15.4 7.5-16.3 6.6-.2-.2 2.8-14.1 6.6-31 3.9-16.9 7-31.9 7-33.2 0-4.2-3.3-6.5-9.2-6.5-4.1.1-9.5 1.7-23.3 7-9.9 3.7-18.1 6.5-18.3 6-.2-.5 1.7-9.4 4.2-19.9 5.3-21.9 5.8-28.6 2.3-31.9-4.7-4.4-16-2-29.1 6.2-7.8 4.9-15.6 11.2-15.6 12.7 0 .5 3.6.9 8 .9 7.8 0 8 .1 7.5 2.2-7 29.2-25.3 108.3-25.1 108.5.4.5 27.8-2.5 28.3-3 .2-.3 3.9-14.4 8.2-31.3l7.7-30.9 8.5-3.7c9-3.9 12.9-4.7 12.9-2.4 0 .8-3.1 16.2-6.9 34.3-3.8 18-6.8 32.9-6.7 33 .8.8 42.8-11.5 52.6-15.4 33.6-13.3 48.3-29.7 49.7-55.3.7-12.6-1.3-21.8-7.3-34-3.9-7.9-6.2-11-13.9-18.7-9.1-9.3-10.8-10.4-11.8-8.1z"/></svg>