<svg xmlns="http://www.w3.org/2000/svg" viewBox="0 0 198.04 75"><title>Asset 7</title><path d="M24.13,30.48V39H14.47V30.53C5.6,28.88,0,22.76,0,15.5S5.66,2.17,14.47.46a24.74,24.74,0,0,1,9.66.11C32.71,2.34,38.2,8.35,38.2,15.5S32.76,28.71,24.13,30.48ZM14.47,21.9v-13a6.76,6.76,0,0,0-5,6.52A6.89,6.89,0,0,0,14.47,21.9Zm14.29-6.52A6.67,6.67,0,0,0,24.13,9V21.79A6.9,6.9,0,0,0,28.76,15.38Z" fill="#fff"/><path d="M69.64.91V28.36H60V16.07L51.17,28.36h-8.4V.91h9.61v12.3L61.24.91Z" fill="#fff"/><path d="M97.32,20.3c0,4.86-3.77,8.92-12.18,8.92a23.81,23.81,0,0,1-10.92-2.77V19.61s5,2.41,9.43,2.41c3.32,0,4.92-.92,4.92-2.41S87.6,17.5,85,17.5H80.62V10.86h3.49c2.17,0,3.09-.74,3.09-1.94C87.2,7.55,86,7,84.05,6.86,80,6.63,74.22,9,74.22,9V2.7A24,24,0,0,1,84.74,0c6.75,0,11,3.2,10.92,7.83a8.27,8.27,0,0,1-3,5.89A6.82,6.82,0,0,1,97.32,20.3Z" fill="#fff"/><path d="M124.76,10.18H117V28.36h-9.61V10.18H99.6V.91h25.16Z" fill="#fff"/><path d="M137.29,18a6.37,6.37,0,0,0,4.69,3.6,21.37,21.37,0,0,0,9.65-.55v6.83c-1.71.69-5,1.73-10.72,1.35-7.75-.52-13.29-6.54-13.29-14.6S134,0,141.46,0s13.32,6,13.32,14a23,23,0,0,1-.28,4Zm-.63-5.83h9.83a4.73,4.73,0,0,0-5-4A4.94,4.94,0,0,0,136.66,12.18Z" fill="#fff"/><path d="M177.43,14.7l8.17,13.66H175.54l-4.69-7.83-4.57,7.83H155.93l8.4-13.89L155.93.91h10.8l4.18,7.67L174.8.91h10.8Z" fill="#fff"/><path d="M193.29,29.22A4.72,4.72,0,1,1,198,24.47,4.74,4.74,0,0,1,193.29,29.22Z" fill="#fff"/><path d="M40.6,65.79a12.71,12.71,0,0,1-7.31-2.27V75H24.13V39h9.16v2.49c.86-1.62,4.6-3.36,7.31-3.36,7.37,0,12,6.18,12,13.88S48,65.79,40.6,65.79ZM38.43,45.91c-2.81,0-5.14,2.71-5.14,6s2.33,6,5.14,6,5-2.66,5-6S41.31,45.91,38.43,45.91Z" fill="#fff"/><path d="M56.31,52c0-7.7,4.6-13.88,12-13.88,2.71,0,6.45,1.74,7.32,3.36V39h9.15V65H75.6V63.52a12.77,12.77,0,0,1-7.32,2.27C60.91,65.79,56.31,59.61,56.31,52Zm9.1-.06c0,3.36,2.17,6,5,6s5.15-2.66,5.15-6-2.33-6-5.15-6S65.41,48.62,65.41,51.92Z" fill="#fff"/><path d="M122.24,56.2V65H89.63V56.2H93.2L95.8,39h22.54V56.2Zm-13,0V47.75h-4.88l-1.46,8.45Z" fill="#fff"/><path d="M152.58,39V65h-9.1V53.33L135.08,65h-8V39h9.1V50.62L144.62,39Z" fill="#fff"/><path d="M185.09,52A14.09,14.09,0,1,1,171,38.1,14,14,0,0,1,185.09,52Zm-8.51,0A5.58,5.58,0,1,0,171,57.5,5.58,5.58,0,0,0,176.58,52Z" fill="#fff"/></svg>