<svg xmlns="http://www.w3.org/2000/svg" viewBox="0 0 69.28 80"><title>Asset 6</title><path d="M45.17,40c0-9-4.75-16.66-15.75-23-3.49-2-11.69-6.73-11.69-6.73V24.54c4.35,1.91,11.3,5.1,14,11.08,2,4.32.93,9.91-2.34,12.45v-3c0-9.6-5.18-13.32-14.74-16.82l-1.48-.55V7.62h0L0,0V80l13.16-7.6h0l0-30.51c1.87.4,4.52,1.61,4.52,5l0,22.88a.77.77,0,0,1,.21-.15v0L29.42,63C40.42,56.67,45.17,49.22,45.17,40Z" fill="#fff"/><path d="M45.43,26.23A24.66,24.66,0,0,1,49.53,40a24.59,24.59,0,0,1-4,13.7L69.28,40Z" fill="#fff"/></svg>